<?xml version="1.0" encoding="utf-8"?>
<!-- Generated by IcoMoon.io -->
<!DOCTYPE svg PUBLIC "-//W3C//DTD SVG 1.1//EN" "http://www.w3.org/Graphics/SVG/1.1/DTD/svg11.dtd">
<svg version="1.1" xmlns="http://www.w3.org/2000/svg" xmlns:xlink="http://www.w3.org/1999/xlink" width="32" height="32" viewBox="0 0 32 32">
<path fill="#fff" d="M19.333 4h-6.667v-1.667c0-0.92 0.746-1.667 1.667-1.667h3.333c0.92 0 1.667 0.746 1.667 1.667v1.667z"></path>
<path fill="#a8c4c6" d="M16-2.333h7.667v7.333h-7.667v-7.333z"></path>
<path fill="#2d4d68" d="M19.333 4.667h-6.667c-0.368 0-0.667-0.299-0.667-0.667v-1.667c0-1.286 1.047-2.333 2.333-2.333h3.333c1.287 0 2.333 1.047 2.333 2.333v1.667c0 0.368-0.299 0.667-0.667 0.667zM13.333 3.333h5.333v-1c0-0.551-0.449-1-1-1h-3.333c-0.551 0-1 0.449-1 1v1z"></path>
<path fill="#a8c4c6" d="M21.972 4h-11.945c-0.936 0-1.694 0.759-1.694 1.694v23.945c0 0.936 0.759 1.694 1.694 1.694h11.944c0.936 0 1.695-0.759 1.695-1.694v-23.945c0-0.936-0.759-1.694-1.694-1.694z"></path>
<path fill="#2d4d68" d="M21.972 32h-11.944c-1.302 0-2.361-1.059-2.361-2.361v-23.945c0-1.302 1.059-2.361 2.361-2.361h11.944c1.302 0 2.362 1.059 2.362 2.361v23.945c0 1.302-1.060 2.361-2.362 2.361zM10.028 4.667c-0.567 0-1.028 0.461-1.028 1.028v23.945c0 0.567 0.461 1.028 1.028 1.028h11.944c0.567 0 1.028-0.461 1.028-1.028v-23.945c0-0.567-0.462-1.028-1.028-1.028h-11.944z"></path>
<path fill="#83ef60" d="M19.333 14.333h-6.667v-5c0-0.92 0.746-1.667 1.667-1.667h3.333c0.92 0 1.667 0.746 1.667 1.667v5z"></path>
<path fill="#2d4d68" d="M19.333 15h-6.667c-0.368 0-0.667-0.299-0.667-0.667v-5c0-1.287 1.047-2.333 2.333-2.333h3.333c1.286 0 2.333 1.047 2.333 2.333v5c0 0.368-0.299 0.667-0.667 0.667zM13.333 13.667h5.333v-4.333c0-0.551-0.449-1-1-1h-3.333c-0.551 0-1 0.449-1 1v4.333z"></path>
<path fill="#32aa77" d="M12.667 21h6.667v5c0 0.92-0.746 1.667-1.667 1.667h-3.333c-0.92 0-1.667-0.746-1.667-1.667v-5z"></path>
<path fill="#2d4d68" d="M17.667 28.333h-3.333c-1.286 0-2.333-1.047-2.333-2.333v-5c0-0.368 0.299-0.667 0.667-0.667h6.667c0.368 0 0.667 0.299 0.667 0.667v5c0 1.287-1.047 2.333-2.333 2.333zM13.333 21.667v4.333c0 0.551 0.449 1 1 1h3.333c0.551 0 1-0.449 1-1v-4.333h-5.333z"></path>
<path fill="#32aa77" d="M12.667 14.333h6.667v6.667h-6.667v-6.667z"></path>
<path fill="#2d4d68" d="M19.333 21.667h-6.667c-0.368 0-0.667-0.299-0.667-0.667v-6.667c0-0.368 0.299-0.667 0.667-0.667h6.667c0.368 0 0.667 0.299 0.667 0.667v6.667c0 0.368-0.299 0.667-0.667 0.667zM13.333 20.333h5.333v-5.333h-5.333v5.333z"></path>
</svg>
