<?xml version="1.0" encoding="utf-8"?>
<!-- Generator: Adobe Illustrator 17.1.0, SVG Export Plug-In . SVG Version: 6.00 Build 0)  -->
<!DOCTYPE svg PUBLIC "-//W3C//DTD SVG 1.1//EN" "http://www.w3.org/Graphics/SVG/1.1/DTD/svg11.dtd">
<svg version="1.1" id="organic-skin-care" xmlns="http://www.w3.org/2000/svg" xmlns:xlink="http://www.w3.org/1999/xlink" x="0px"
	 y="0px" viewBox="0 0 98.7651 98.7651" enable-background="new 0 0 98.7651 98.7651" xml:space="preserve">
<g id="organic-skin-care-label">
	<circle fill="#A1D9B1" cx="49.3823" cy="49.3823" r="48"/>
	<path fill="#4D5152" d="M49.3823,98.7651C22.1528,98.7651,0,76.6118,0,49.3823S22.1528,0,49.3823,0
		s49.3828,22.1528,49.3828,49.3823S76.6118,98.7651,49.3823,98.7651z M49.3823,2.7646c-25.7051,0-46.6177,20.9126-46.6177,46.6177
		s20.9126,46.6172,46.6177,46.6172s46.6172-20.9121,46.6172-46.6172S75.0874,2.7646,49.3823,2.7646z"/>
</g>
<g id="organic-skin-care-creme">
	<g>
		<path fill="#FFFFFF" d="M49.1909,47.6489c-9.7642,0-16.3228-4.4404-16.3228-8.5869c0-0.2124,0.0186-0.4365,0.0596-0.6865
			c0.0064-0.0357,0.0078-0.0733,0.0078-0.1114c0.0064-1.8183,0.9375-6.4111,9.4009-9.7924c4.6157-1.8448,6.9932-3.9893,7.272-6.5567
			c0.0683-0.6177,0.0039-1.2436-0.1909-1.8633l-0.4346-1.3891l1.1684,0.4238c3.5611,1.2905,8.5318,3.9683,11.9976,9.4121
			c5.6982,8.9463,4.2549,12.333,2.0938,14.4688C61.7778,45.3999,58.2475,47.6489,49.1909,47.6489L49.1909,47.6489z"/>
		<path fill="#4D5152" d="M49.1909,49.0312c-10.936,0-17.7051-5.1748-17.7051-9.9692c0-0.2739,0.022-0.5518,0.0679-0.8472
			c0.0229-2.1353,1.0938-7.3608,10.27-11.0269c4.0381-1.6138,6.1948-3.4385,6.4102-5.4224c0.0474-0.4272,0.002-0.8633-0.1353-1.2993
			l-0.4351-1.3911c-0.1567-0.5015-0.0156-1.0483,0.3638-1.4116c0.3799-0.3633,0.9336-0.481,1.4268-0.3003l1.1685,0.4238
			c3.7627,1.3633,9.0195,4.2002,12.6924,9.9692c4.9512,7.7734,5.5195,12.6167,1.8994,16.1943
			C62.5405,46.5898,58.7485,49.0312,49.1909,49.0312z M50.9927,20.9048c0.0361,0.3877,0.0322,0.7759-0.0107,1.1621
			c-0.3389,3.1211-2.999,5.6367-8.1323,7.6885c-7.6841,3.0698-8.5264,6.9766-8.5317,8.5137c0,0.1162-0.0088,0.2354-0.0293,0.3486
			c-0.0244,0.1499-0.0381,0.3013-0.0381,0.4443c0,3.0083,5.6841,7.2046,14.9404,7.2046c8.5605,0,11.8262-2.0586,14.0811-4.2832
			c1.1602-1.147,3.5762-3.5342-2.2891-12.7422C58.1333,24.7651,54.186,22.2729,50.9927,20.9048z"/>
	</g>
	<g>
		<path fill="#CCCCCC" d="M31.7822,41.1953v-5.6128c0-0.8931,0.9453-1.6148,2.1118-1.6148h30.9756
			c1.168,0,2.1123,0.7217,2.1123,1.6148v5.6128"/>
		<path fill="#4D5152" d="M68.3647,41.1953h-2.7656v-5.6128c-0.0303-0.0396-0.2969-0.2324-0.7295-0.2324H33.894
			c-0.4316,0-0.6982,0.1929-0.7368,0.2734l0.0073,5.5718h-2.7646v-5.6128c0-1.6807,1.5347-2.9971,3.4941-2.9971h30.9756
			c1.96,0,3.4951,1.3164,3.4951,2.9971V41.1953z"/>
	</g>
	<g>
		<path fill="#FFB957" d="M68.7124,42.7207v-1.1284H30.0522v1.1425c-1.0058,2.8448-5.8584,1.5298-5.8584,8.0625v16.6709
			c0,6.9786,6.7583,12.6338,15.0952,12.6338h15.3648h4.8213c8.3369,0,15.0967-5.6552,15.0967-12.6338V50.7973
			C74.5718,44.2534,69.6977,45.5835,68.7124,42.7207z"/>
		<path fill="#4D5152" d="M59.4751,81.4849h-20.186c-9.0859,0-16.4775-6.2881-16.4775-14.0166V50.7974
			c0-4.9282,2.5962-6.3037,4.314-7.2139c0.8057-0.4268,1.3096-0.71,1.5444-1.1338V40.21h41.4253v2.2339
			c0.2266,0.4253,0.7129,0.6992,1.5459,1.1401c1.7168,0.9106,4.3135,2.2866,4.3135,7.2134v16.6709
			C75.9546,75.1968,68.562,81.4849,59.4751,81.4849z M31.4336,42.9746l-0.0781,0.2212c-0.5547,1.5693-1.8198,2.2393-2.9355,2.8306
			c-1.5889,0.8418-2.8438,1.5068-2.8438,4.771v16.6709c0,6.2041,6.1519,11.251,13.7129,11.251h20.186
			c7.5625,0,13.7139-5.0469,13.7139-11.251V50.7974c0-3.2632-1.2549-3.9282-2.8428-4.7705c-1.123-0.5947-2.3945-1.269-2.9414-2.8564
			l-0.0674-0.1958H31.4336z"/>
	</g>
	<g>
		<path fill="#FFFFFF" d="M63.7827,60.9028c0,7.9541-6.4473,14.3994-14.4009,14.3994c-7.9521,0-14.3984-6.4453-14.3984-14.3994
			c0-7.956,6.4463-14.4009,14.3984-14.4009C57.3354,46.5019,63.7827,52.9468,63.7827,60.9028z"/>
		<g>
			<g>
				<g>
					<g>
						<g>
							<path fill="#A1D9B1" d="M34.6577,53.6079c-0.5122-2.7119-0.6162-4.8877-0.6196-4.9795
								c-0.0088-0.1582,0.062-0.312,0.1884-0.4092c0.1241-0.0996,0.2901-0.1343,0.4454-0.0908
								c0.0898,0.0239,2.2075,0.6074,4.7661,1.7041c3.4677,1.4873,5.9433,3.1309,7.3613,4.8887
								c1.8276,2.2666,1.7441,4.5888,1.3511,6.1396c-0.4185,1.6572-1.2608,2.7774-1.2945,2.8242
								c-0.0278,0.0332-0.0566,0.0635-0.0893,0.0889c-0.0337,0.0254-0.0689,0.0488-0.1084,0.0664
								c-0.0557,0.0234-1.3443,0.5869-3.0689,0.6231c-1.6152,0.038-3.9214-0.3985-5.7475-2.668
								C36.4258,60.0405,35.355,57.2846,34.6577,53.6079z"/>
							<path fill="#4D5152" d="M43.4019,65.8481c-1.8584,0-4.5181-0.5527-6.6372-3.1865c-1.5581-1.9307-2.7246-4.8906-3.4653-8.7959
								c-0.5449-2.8857-0.6416-5.1636-0.6426-5.186c-0.0332-0.5894,0.2383-1.1807,0.7275-1.5566
								c0.4336-0.3486,1.0845-0.4868,1.6602-0.3257c0.0049,0.001,2.2432,0.6094,4.938,1.7646
								c3.6772,1.5771,6.333,3.3574,7.8931,5.291c2.1865,2.7119,2.085,5.4922,1.6147,7.3477
								c-0.4385,1.7363-1.27,2.9609-1.5142,3.2949c-0.1562,0.1914-0.2544,0.2871-0.3618,0.3701
								c-0.1401,0.1064-0.2642,0.1797-0.3945,0.2383c-0.4043,0.1719-1.7856,0.7031-3.6016,0.7412L43.4019,65.8481z M35.5166,49.8325
								c0.0845,0.874,0.2358,2.123,0.4995,3.5186c0.6548,3.4521,1.6309,6.002,2.9014,7.5762
								c1.1519,1.4307,2.6602,2.1562,4.4844,2.1562l0.1548-0.002c1.061-0.0225,1.9263-0.2812,2.3262-0.4229
								c0.2349-0.3662,0.6758-1.1396,0.9272-2.1367c0.459-1.8105,0.0933-3.4697-1.0869-4.9326
								c-1.2739-1.5791-3.5718-3.0889-6.8301-4.4863C37.5669,50.5347,36.3589,50.1079,35.5166,49.8325z"/>
						</g>
						<g>
							<path fill="#4D5152" d="M49.1289,67.5718c-0.4097,0-0.8149-0.1816-1.0879-0.5283l-6.2251-7.9219
								c-0.4717-0.6006-0.3677-1.4697,0.2329-1.9414c0.6001-0.4727,1.4688-0.3672,1.9409,0.2324l6.2251,7.9219
								c0.4722,0.6006,0.3677,1.4697-0.2329,1.9414C49.729,67.4751,49.4277,67.5718,49.1289,67.5718z"/>
						</g>
					</g>
				</g>
			</g>
			<g>
				<g>
					<g>
						<g>
							<path fill="#A1D9B1" d="M63.9594,53.7837c0.6338-3.3487,0.7618-6.0337,0.7686-6.146
								c0.0078-0.1949-0.0771-0.3858-0.2344-0.5054c-0.1523-0.1235-0.3584-0.166-0.5517-0.1133
								c-0.1084,0.0298-2.7237,0.7505-5.8828,2.105c-4.2823,1.8354-7.3379,3.8647-9.086,6.0337
								c-2.2578,2.7998-2.1538,5.667-1.6714,7.5791c0.5201,2.0478,1.5577,3.4316,1.6026,3.4902
								c0.0312,0.0401,0.0678,0.0772,0.1074,0.1084c0.041,0.0323,0.0864,0.0606,0.1352,0.0821
								c0.0674,0.0283,1.6583,0.7246,3.7891,0.7705c1.9932,0.0429,4.8389-0.4932,7.0938-3.293
								C61.7788,61.727,63.1011,58.3237,63.9594,53.7837z"/>
							<path fill="#4D5152" d="M53.1499,68.5728L53.1499,68.5728l-0.2441-0.0029c-2.2393-0.0479-3.9702-0.7402-4.2944-0.8779
								c-0.1733-0.0762-0.3193-0.1641-0.4536-0.2695c-0.1289-0.1016-0.2437-0.2168-0.3433-0.3447
								c-0.0581-0.0762-1.2578-1.6592-1.8525-4.001c-0.5601-2.2207-0.6787-5.5449,1.9351-8.7871
								c1.8906-2.3457,5.127-4.5112,9.6172-6.436c3.168-1.3584,5.7744-2.0889,6.0615-2.1675
								c0.6211-0.1709,1.2969-0.0264,1.7891,0.3726c0.4795,0.3643,0.7705,0.9854,0.7441,1.6348
								c-0.04,0.7461-0.21,3.2759-0.791,6.3472c-0.9014,4.7676-2.3184,8.375-4.2119,10.7227
								C58.5698,67.9116,55.3794,68.5728,53.1499,68.5728z M49.8901,65.2261c0.4502,0.168,1.623,0.5488,3.0752,0.5801l0.1846,0.002
								c2.3652,0,4.3174-0.9355,5.8037-2.7803c1.6045-1.9893,2.832-5.1855,3.6475-9.501c0.3789-2.001,0.5723-3.7524,0.668-4.8633
								c-1.0391,0.3281-2.7529,0.9111-4.665,1.7314c-4.0723,1.7451-6.9502,3.6387-8.5547,5.6299
								c-1.5239,1.8906-1.9976,4.0342-1.4072,6.374C48.9956,63.7896,49.6318,64.8384,49.8901,65.2261z"/>
						</g>
						<g>
							<path fill="#4D5152" d="M46.0957,70.7007c-0.314,0-0.6289-0.1064-0.8882-0.3242c-0.585-0.4902-0.6611-1.3623-0.1704-1.9473
								l13.0728-15.5781c0.4912-0.5859,1.3633-0.6611,1.9473-0.1699c0.585,0.4902,0.6611,1.3623,0.1699,1.9473L47.1553,70.2065
								C46.8818,70.5327,46.4897,70.7007,46.0957,70.7007z"/>
						</g>
						<g>
							<g>
								<path fill="#4D5152" d="M51.1099,64.9155c-0.0781,0-0.1562-0.0068-0.2354-0.0205
									c-0.7524-0.1289-1.2578-0.8428-1.1294-1.5957l1.2466-7.2773c0.1289-0.7529,0.8477-1.2588,1.5957-1.1289
									c0.752,0.1289,1.2578,0.8428,1.1289,1.5957l-1.2461,7.2773C52.355,64.4399,51.771,64.9155,51.1099,64.9155z"/>
							</g>
							<g>
								<path fill="#4D5152" d="M51.3696,64.7944c-0.5615,0-1.0889-0.3447-1.2959-0.9014
									c-0.2656-0.7158,0.0991-1.5117,0.8145-1.7773l6.8311-2.5371c0.7178-0.2637,1.5107,0.0986,1.7773,0.8145
									c0.2656,0.7158-0.0986,1.5117-0.8145,1.7773l-6.8311,2.5371C51.6919,64.7661,51.5298,64.7944,51.3696,64.7944z"/>
							</g>
						</g>
					</g>
				</g>
			</g>
		</g>
	</g>
	<g>
		<rect x="32.7769" y="36.3213" fill="#4D5152" width="12.8438" height="2.7646"/>
	</g>
	<g>
		<rect x="46.8564" y="36.3213" fill="#4D5152" width="3.8843" height="2.7646"/>
	</g>
	<g>
		<path fill="#4D5152" d="M35.8774,75.3804c-0.0591,0-0.1187-0.0039-0.1787-0.0117c-6.0303-0.7773-7.3018-5.9482-7.1313-8.5752
			c0.0493-0.7627,0.7163-1.3447,1.4688-1.29c0.7598,0.0498,1.3364,0.7041,1.2905,1.4629c-0.0283,0.5146-0.1333,5.0342,4.7256,5.6602
			c0.7573,0.0977,1.292,0.79,1.1943,1.5479C37.1567,74.8716,36.562,75.3804,35.8774,75.3804z"/>
	</g>
</g>
</svg>
